<svg xmlns="http://www.w3.org/2000/svg" fill="none" viewBox="0 0 367 75">
  <path fill="#2D2D2D" d="M258.236 1.98505h3.207L267.32 18h-2.67l-1.614-4.4411h-6.415L255.006 18h-2.67l5.9-16.01495Zm1.614 2.33271h-.067l-2.445 7.17754h4.98l-2.468-7.17754Zm19.382 12.62804c0 3.7009-2.624 5.428-5.607 5.428-3.05 0-5.226-1.5701-5.518-3.9701h2.423c.246 1.458 1.39 2.0187 3.073 2.0187 1.839 0 3.095-.9869 3.095-3.2747V15.757h-.023c-.471 1.2785-1.57 2.3327-3.678 2.3327-3.23 0-5.406-2.4448-5.406-6.0336 0-3.54395 2.154-5.94395 5.384-5.94395 2.108 0 3.297 1.14392 3.7 2.19813h.023V6.40374h2.534V16.9458Zm-9.196-4.8673c0 2.1084 1.099 3.9925 3.432 3.9925 2.557 0 3.409-2.243 3.409-3.9925 0-1.7271-1.144-3.97009-3.409-3.97009-2.265 0-3.432 1.88411-3.432 3.97009Zm21.956 2.4897c-.673 2.3776-2.646 3.7458-5.36 3.7458-3.455 0-5.81-2.4897-5.81-6.1458 0-3.52147 2.445-6.07848 5.81-6.07848 3.992 0 5.517 3.11776 5.54 6.32528v.471h-8.995c.202 2.1308 1.571 3.4318 3.432 3.4318 1.391 0 2.557-.5384 2.961-1.7496h2.422Zm-2.243-3.4766c-.157-1.74954-1.166-3.07291-3.14-3.07291-1.884 0-3.14 1.23365-3.409 3.07291h6.549Zm6.507-4.68786v2.08598c.628-1.32337 1.682-2.37757 3.477-2.37757 3.028 0 4.194 1.97383 4.194 4.57565V18h-2.445v-6.8636c0-1.86163-.673-2.91584-2.288-2.91584-1.615 0-2.893 1.39065-2.893 4.32894V18h-2.468V6.40374h2.423Zm20.503 7.87286c-.561 2.5795-2.49 4.015-5.271 4.015-3.522 0-6.079-2.4449-6.079-6.0785 0-3.65609 2.557-6.10095 6.079-6.10095 2.893 0 4.732 1.61495 5.203 3.92525h-2.377c-.404-1.12151-1.279-1.97385-2.871-1.97385-2.198 0-3.589 1.81682-3.589 4.14955 0 2.3103 1.391 4.1047 3.589 4.1047 1.48 0 2.49-.6729 2.938-2.0412h2.378Zm2.795-7.87286c1.099 3.09533 2.198 5.98876 3.297 9.08416h.045c.897-2.8935 1.952-5.98883 2.961-9.08416h2.602c-2.58 7.06546-2.49 6.61686-5.159 13.86166-.516 1.3907-1.391 2.2206-2.961 2.2206h-1.884v-1.9739h1.279c.987 0 1.256-.471 1.547-1.2785l.359-.9644c-1.66-4.2617-3.185-8.0075-4.688-11.86546h2.602ZM268.307 40.1327c-.696 2.8935-3.32 5.1589-7.357 5.1589-5.07 0-8.143-3.6112-8.143-8.2991 0-4.6654 3.096-8.299 8.165-8.299 4.015 0 6.348 2.1084 7.335 5.1588h-2.557c-.853-1.9514-2.333-2.9831-4.778-2.9831-3.544 0-5.585 2.7364-5.585 6.1233 0 3.3645 2.019 6.1234 5.585 6.1234 2.579 0 4.15-1.2112 4.8-2.9832h2.535Zm7.244 5.1589c-3.454 0-5.944-2.5122-5.944-6.0785 0-3.5888 2.49-6.101 5.944-6.101 3.454 0 5.944 2.5122 5.944 6.101 0 3.5663-2.49 6.0785-5.944 6.0785Zm-3.522-6.0785c0 2.243 1.413 4.0822 3.522 4.0822 2.131 0 3.521-1.8392 3.521-4.0822 0-2.2654-1.39-4.1047-3.521-4.1047-2.109 0-3.522 1.8393-3.522 4.1047Zm13.48-5.8094v1.9514c.292-1.0766 1.413-2.243 3.028-2.243 1.727 0 2.804.6954 3.365 2.243.673-1.4803 1.66-2.243 3.275-2.243 2.871 0 4.149 1.9739 4.149 4.5758V45h-2.445v-6.8636c0-1.8616-.65-2.9158-2.041-2.9158-1.413 0-2.422 1.4355-2.422 4.1719V45h-2.423v-6.8636c0-1.8616-.403-2.9158-1.996-2.9158-1.929 0-2.445 1.9738-2.445 4.3289V45h-2.467V33.4037h2.422Zm18.458 0v1.9514c.291-1.0766 1.413-2.243 3.028-2.243 1.727 0 2.804.6954 3.364 2.243.673-1.4803 1.66-2.243 3.275-2.243 2.871 0 4.15 1.9739 4.15 4.5758V45h-2.445v-6.8636c0-1.8616-.651-2.9158-2.041-2.9158-1.413 0-2.423 1.4355-2.423 4.1719V45h-2.422v-6.8636c0-1.8616-.404-2.9158-1.996-2.9158-1.929 0-2.445 1.9738-2.445 4.3289V45h-2.468V33.4037h2.423Zm18.39 0v6.8636c0 1.8392.673 2.9159 2.288 2.9159 1.615 0 2.893-1.3907 2.893-4.329v-5.4505h2.468V45h-2.423v-2.086c-.628 1.3234-1.682 2.3776-3.476 2.3776-3.028 0-4.195-1.9963-4.195-4.5757v-7.3122h2.445Zm12.361 0v2.086c.628-1.3233 1.682-2.3776 3.476-2.3776 3.028 0 4.195 1.9739 4.195 4.5758V45h-2.445v-6.8636c0-1.8616-.673-2.9158-2.288-2.9158-1.615 0-2.893 1.3906-2.893 4.3289V45h-2.468V33.4037h2.423Zm9.916-4.4187h2.579v2.4673h-2.579V28.985Zm2.422 4.4187V45h-2.467V33.4037h2.467Zm5.474 7.7832c0 1.2112.427 1.8617 1.481 1.8617h.785v1.9738h-1.211c-2.557.0225-3.455-1.5028-3.455-3.5663v-6.1234h-1.794v-1.929h1.794v-2.6691l2.4-1.0767v3.7458h2.266v1.929h-2.266v5.8542Zm5.498-7.7832c1.099 3.0954 2.198 5.9888 3.297 9.0842h.045c.897-2.8935 1.952-5.9888 2.961-9.0842h2.602c-2.58 7.0655-2.49 6.6169-5.159 13.8617-.516 1.3907-1.391 2.2206-2.961 2.2206h-1.884v-1.9739h1.279c.987 0 1.256-.471 1.547-1.2785l.359-.9644c-1.66-4.2617-3.185-8.0075-4.688-11.8655h2.602ZM255.499 64.9308c.112 2.1982 1.615 3.2972 3.746 3.2972 1.817 0 3.207-.785 3.207-2.5345 0-1.7944-1.525-2.1533-3.566-2.7589-2.647-.7851-5.316-1.6374-5.361-4.7552-.045-3.0729 2.647-4.5757 5.563-4.5757 3.207 0 5.428 1.5477 5.719 4.9346h-2.579c-.292-1.8841-1.256-2.8037-3.185-2.8037-1.615 0-2.961.6729-2.961 2.4 0 1.4804 1.436 2.086 3.522 2.6916 2.691.785 5.405 1.4355 5.405 4.8448 0 3.2748-2.826 4.7103-5.764 4.7103-3.499 0-6.191-1.7047-6.348-5.4505h2.602Zm17.73-6.8187c3.208 0 5.361 2.4225 5.361 6.0561 0 3.6561-2.176 6.1234-5.361 6.1234-2.041 0-3.342-1.3234-3.768-2.3552h-.023v6.5496h-2.512V58.4037h2.49v2.1533h.022c.404-1.0991 1.75-2.4449 3.791-2.4449Zm-3.948 6.0561c0 2.1533 1.099 4.1271 3.432 4.1271 2.266 0 3.432-1.7944 3.432-4.1271 0-2.3103-1.211-4.0598-3.432-4.0598-2.31 0-3.432 1.9514-3.432 4.0598Zm10.855-2.243c.291-1.7944 1.794-3.8579 4.822-3.8579 3.948 0 4.823 2.4224 4.823 4.7551v4.5757c0 .8972.067 1.9514.202 2.6019h-2.535c-.045-.471-.067-.9196-.067-1.4355v-.5159h-.023c-.359.9196-1.323 2.243-3.701 2.243-2.669 0-4.082-1.6598-4.082-3.4542 0-3.2299 3.97-3.4542 5.675-3.7234 1.503-.2467 2.108-.5832 2.108-1.5476 0-.9421-.875-1.5477-2.355-1.5477-1.278 0-2.243.7402-2.512 1.9065h-2.355Zm1.884 4.8449c0 .9645.83 1.6374 2.198 1.6374 1.615 0 3.185-1.0094 3.185-3.7907v-1.2785c-.247.6505-.83 1.2337-2.916 1.6374-1.615.2916-2.467.7851-2.467 1.7944Zm20.594-.4935c-.561 2.5795-2.49 4.015-5.271 4.015-3.522 0-6.079-2.4449-6.079-6.0785 0-3.6561 2.557-6.101 6.079-6.101 2.893 0 4.732 1.615 5.203 3.9253h-2.377c-.404-1.1215-1.279-1.9738-2.871-1.9738-2.198 0-3.589 1.8168-3.589 4.1495 0 2.3103 1.391 4.1047 3.589 4.1047 1.48 0 2.49-.6729 2.938-2.0412h2.378Zm12.161.2916c-.673 2.3776-2.647 3.7458-5.361 3.7458-3.454 0-5.81-2.4897-5.81-6.1458 0-3.5215 2.445-6.0785 5.81-6.0785 3.992 0 5.518 3.1178 5.54 6.3253v.471h-8.994c.201 2.1308 1.57 3.4318 3.431 3.4318 1.391 0 2.557-.5384 2.961-1.7496h2.423Zm-2.243-3.4766c-.157-1.7495-1.167-3.0729-3.141-3.0729-1.884 0-3.14 1.2336-3.409 3.0729h6.55ZM9.68192 69.0797c5.34718 0 9.68188-4.3523 9.68188-9.7212s-4.3347-9.7212-9.68188-9.7212S0 53.9896 0 59.3585s4.33474 9.7212 9.68192 9.7212ZM59.4375 8.37477 49.8816 22.2909l-.83-20.6011-23.6518 4.72105.69 5.69295 5.9879-.4618c1.62-.1245 3.004 1.1626 3.004 2.7932v43.359c0 1.4438-.958 2.7109-2.344 3.0985l-5.9539 1.6647v5.3014h35.8977l.022-5.7633-8.688-1.0482c-1.8859-.2269-3.3059-1.8354-3.3059-3.7431V28.2751l9.6159-7.932c2.068-1.7049 4.662-2.6387 7.3379-2.6387h7.816v-15.37h-4.59c-4.574 0-8.8559 2.25711-11.4539 6.04037h.002ZM134.265 56.0752l.278-34.2522c0-4.2531-.37-7.7974-1.108-10.6228-.738-2.82141-2.006-5.07049-3.804-6.7352-1.796-1.66673-4.216-2.81938-7.26-3.472012l-.092-.018073c-5.982-1.230967-12.196-.600423-17.812 1.807295L84.3373 11.413v11.6651h14.2439l2.2138-12.0848c1.384-.6466 2.974-1.20081 4.77-1.66669 1.798-.45985 3.574-.69279 5.328-.69279 3.134 0 5.184.99602 6.154 2.99008.966 1.986 1.45 5.0684 1.45 9.2352v7.5003l-26.0498 8.5204c-2.8119.9197-5.4159 2.5422-7.2019 4.9118-2.078 2.7551-3.122 6.0986-3.122 10.0345 0 5.6528 1.958 10.0927 5.88 13.3318l.118.0964c5.9899 4.9098 14.5297 5.1287 20.7597.5321l10.448-7.7071 1.982 4.9138c1.928 4.7793 7.232 7.2192 12.098 5.5665l10.816-3.6748v-5.5584h-6.754c-1.78 0-3.218-1.4559-3.204-3.2431l-.002-.0081Zm-15.768-3.2832-4.84 3.3334c-.922.6527-2.074 1.3455-3.458 2.0865-1.38.7389-2.952 1.1064-4.7 1.1064-1.846 0-3.552-.6928-5.118-2.0804-1.5698-1.3876-3.2758-4.0302-3.2758-7.5504 0-4.2371 1.714-6.4561 3.8298-8.2815 3.046-2.6266 17.564-7.2191 17.564-7.2191V52.792h-.002Zm96.925-50.45559v5.33151l3.698.88758c1.572.37752 2.494 2.0141 2.006 3.5624l-11.15 35.2884-11.632-35.2704c-.522-1.5843.446-3.27115 2.072-3.61253l4.074-.85545V2.33641h-27.013v5.33151l3.033.8173c1.624.43776 2.932 1.64468 3.502 3.23308l2.874 8.0083-11.715 29.264-12.362-36.8145c-.534-1.5884.436-3.28725 2.072-3.62863l4.23-.88156v-5.3295h-29.18v5.46605l5.178 1.02012c1.034.20282 1.884.93778 2.242 1.93182l21.188 59.0502 8.02-2.8173 14.319-36.1358 13.974 38.9531 8.022-2.8173 17.85-56.0642c.34-1.06635 1.242-1.85553 2.34-2.04831L240 7.66591v-5.3295h-24.578Z"></path>
</svg>